<?xml version="1.0" encoding="UTF-8"?> <svg xmlns="http://www.w3.org/2000/svg" width="1028" height="1028" viewBox="0 0 1028 1028" fill="none"> <path d="M513.868 1027.74C231.238 1027.74 0 796.495 0 513.868C0 231.243 231.238 0.000263669 513.868 0.000263669C796.497 0.000263669 1027.74 231.243 1027.74 513.868C1027.74 796.495 796.497 1027.74 513.868 1027.74Z" fill="#526E9A"></path> <path d="M800.523 537.175C800.523 695.866 709.324 778.439 596.87 778.439H495.17H479.703H467.577C465.495 778.439 463.55 779.306 462.2 780.894C450.303 794.906 434.584 813.12 418.706 831.346C397.199 856.093 375.463 880.906 362.879 895.254C361.575 896.734 359.882 897.386 358.212 897.386C355.009 897.386 351.897 894.893 351.897 891.067V820.959V769.734C351.897 766.828 350.09 764.268 347.39 763.16C344.942 762.174 342.516 761.108 340.091 760.014C336.064 758.175 332.106 756.228 328.262 754.107C267.86 720.975 227.225 652.866 227.225 543.08V488.867C227.225 335.721 308.014 247.6 471.672 247.6H556.007C714.358 247.6 800.523 335.721 800.523 488.867V537.175ZM556.007 194.455H471.672C282.571 194.455 174.053 301.761 174.053 488.867V543.08C174.053 635.215 199.106 707.974 248.549 759.294C271.177 782.679 297.969 800.64 328.262 812.814V891.067C328.262 907.959 342.333 921.6 359.31 920.987C367.867 920.68 375.76 916.374 381.389 909.947C396.169 893.133 424.471 860.827 449.754 831.587H596.87C668.987 831.587 734.08 803.708 780.206 753.093C828.23 700.294 853.672 625.587 853.672 537.175V488.867C853.672 304.534 742.408 194.455 556.007 194.455Z" fill="#F7F7F7"></path> <path d="M653.69 610.096L612.507 582.336C596.731 571.696 575.53 574.348 562.87 588.548L553.37 599.188C552.476 600.228 551.561 601.269 550.646 602.309C548.685 604.575 545.743 605.762 542.758 605.481L541.669 605.387C525.479 603.936 509.834 598.415 496.673 588.856C475.101 573.15 455.403 553.456 439.693 531.869C430.127 518.721 424.614 503.069 423.154 486.882L423.067 485.803C422.784 482.803 423.982 479.855 426.248 477.883C427.273 476.976 428.319 476.07 429.343 475.176L439.998 465.683C454.205 453.016 456.863 431.802 446.208 416.028L418.448 374.856C406.006 356.429 380.49 352.548 363.146 366.444L355.606 372.481C334.753 389.19 327.824 417.749 338.327 442.322C347.566 463.843 356.609 488.056 377.156 520.656C377.396 520.455 400.493 560.028 434.507 594.055C465.688 625.268 508.091 651.161 507.895 651.388C540.492 671.949 564.7 680.989 586.229 690.202C610.808 700.735 639.352 693.802 656.065 672.936L662.101 665.416C676.002 648.056 672.124 622.536 653.69 610.096" fill="#F7F7F7"></path> <path d="M640.783 387.764C606.258 353.23 558.925 335.682 507.585 338.349C502.681 338.603 498.915 342.763 499.178 347.656C499.287 349.937 500.273 351.964 501.761 353.457C503.469 355.176 505.877 356.177 508.483 356.043C554.765 353.644 597.325 369.35 628.26 400.296C659.196 431.231 674.915 473.763 672.506 520.056C672.244 524.949 676.009 529.111 680.892 529.363C685.774 529.617 689.955 525.871 690.196 520.978C692.867 469.603 675.331 422.296 640.783 387.764" fill="#F7F7F7"></path> <path d="M630.239 511.843C631.731 513.308 633.719 514.283 635.967 514.415C640.852 514.722 645.046 511.002 645.348 506.121C647.51 471.215 635.902 439.188 612.623 415.922C589.366 392.656 557.332 381.029 522.424 383.204C517.539 383.496 513.821 387.71 514.146 392.589C514.448 397.47 518.642 401.177 523.527 400.883C553.29 399.043 580.482 408.828 600.087 428.457C619.713 448.07 629.505 475.268 627.667 505.03C627.516 507.669 628.51 510.109 630.239 511.843" fill="#F7F7F7"></path> <path d="M584.465 494.733C585.937 496.2 587.92 497.172 590.159 497.307C595.043 497.612 599.266 493.892 599.565 489.013C600.61 472.026 594.937 456.399 583.548 445.012C572.159 433.626 556.526 427.931 539.55 428.985C534.645 429.292 530.934 433.491 531.254 438.373C531.552 443.266 535.754 446.972 540.638 446.678C552.474 445.932 563.266 449.798 571.008 457.546C578.749 465.28 582.61 476.065 581.884 487.918C581.714 490.559 582.737 492.999 584.465 494.733" fill="#F7F7F7"></path> </svg> 