<?xml version="1.0" encoding="UTF-8" standalone="no"?>
<!-- Created with Inkscape (http://www.inkscape.org/) -->

<svg
   width="210mm"
   height="297mm"
   viewBox="0 0 210 297"
   version="1.1"
   id="svg1"
   inkscape:version="1.3.2 (091e20e, 2023-11-25, custom)"
   sodipodi:docname="фортнайт ресторан.svg"
   xmlns:inkscape="http://www.inkscape.org/namespaces/inkscape"
   xmlns:sodipodi="http://sodipodi.sourceforge.net/DTD/sodipodi-0.dtd"
   xmlns="http://www.w3.org/2000/svg"
   xmlns:svg="http://www.w3.org/2000/svg">
  <sodipodi:namedview
     id="namedview1"
     pagecolor="#ffffff"
     bordercolor="#000000"
     borderopacity="0.25"
     inkscape:showpageshadow="2"
     inkscape:pageopacity="0.0"
     inkscape:pagecheckerboard="0"
     inkscape:deskcolor="#d1d1d1"
     inkscape:document-units="mm"
     inkscape:zoom="0.73139029"
     inkscape:cx="397.18876"
     inkscape:cy="561.25984"
     inkscape:window-width="1920"
     inkscape:window-height="1017"
     inkscape:window-x="-8"
     inkscape:window-y="-8"
     inkscape:window-maximized="1"
     inkscape:current-layer="layer1" />
  <defs
     id="defs1" />
  <g
     inkscape:label="Слой 1"
     inkscape:groupmode="layer"
     id="layer1">
    <path
       sodipodi:type="spiral"
       style="fill:#67edf6;fill-rule:evenodd;stroke:#66d4e4;stroke-width:1.265;stroke-dasharray:none;fill-opacity:1;stroke-opacity:1"
       id="path3"
       sodipodi:cx="53.17783"
       sodipodi:cy="72.71254"
       sodipodi:expansion="1"
       sodipodi:revolution="3"
       sodipodi:radius="69.870979"
       sodipodi:argument="-19.66791"
       sodipodi:t0="0"
       d="m 53.17783,72.71254 c 2.394184,-2.557427 4.628566,1.965568 4.250611,3.979291 -1.024235,5.457066 -7.934552,6.556711 -12.209195,4.521931 -7.646333,-3.639745 -8.8599,-13.705965 -4.793249,-20.439098 5.967974,-9.881143 19.554554,-11.228259 28.669,-5.064568 12.148123,8.215231 13.6242,25.430392 5.335887,36.898903 C 64.000889,107.04095 43.111703,108.64337 29.302079,98.216205 12.576774,85.587513 10.849306,61.000946 23.423553,44.857497 38.241868,25.833001 66.539432,23.981154 85.012164,38.707652 106.33966,55.709977 108.31553,87.727183 91.433328,108.52617 72.250703,132.15929 36.508015,134.25896 13.384912,115.21865 -12.555716,93.858301 -14.77906,54.386001 6.4211096,28.94033 29.957316,0.69081195 73.162263,-1.6561332 100.92933,21.705209"
       transform="translate(54.263094,41.963459)" />
    <rect
       style="fill:#edfdfe;fill-opacity:1;stroke:#33b8e0;stroke-width:0.607999;stroke-opacity:1"
       id="rect3"
       width="22.428747"
       height="6.8733215"
       x="95.503044"
       y="111.05846"
       ry="1.9896449" />
    <rect
       style="fill:#edfdfe;fill-opacity:1;stroke:#33b8e0;stroke-width:0.607999;stroke-opacity:1"
       id="rect1"
       width="9.4056005"
       height="50.283798"
       x="95.503044"
       y="87.544456"
       ry="2.8940318" />
    <rect
       style="fill:#edfdfe;fill-opacity:1;stroke:#33b8e0;stroke-width:0.607999;stroke-opacity:1"
       id="rect2"
       width="29.663832"
       height="8.3203382"
       x="95.503044"
       y="87.182709"
       ry="1.9896451" />
  </g>
</svg>
